<?xml version="1.0" encoding="UTF-8"?>
<!DOCTYPE svg PUBLIC "-//W3C//DTD SVG 1.1//EN" "http://www.w3.org/Graphics/SVG/1.1/DTD/svg11.dtd">
<!-- Creator: CorelDRAW X7 -->
<svg xmlns="http://www.w3.org/2000/svg" xml:space="preserve" width="42px" height="33px" version="1.1" style="shape-rendering:geometricPrecision; text-rendering:geometricPrecision; image-rendering:optimizeQuality; fill-rule:evenodd; clip-rule:evenodd"
viewBox="0 0 81 64"
 xmlns:xlink="http://www.w3.org/1999/xlink">
 <defs>
  <style type="text/css">
   <![CDATA[
    .fil0 {fill:#212121;fill-rule:nonzero}
   ]]>
  </style>
 </defs>
 <g id="Слой_x0020_1">
  <metadata id="CorelCorpID_0Corel-Layer"/>
  <path class="fil0" d="M11 21l0 0 -1 -1 -10 17 9 -2c0,2 0,4 1,6 2,8 7,15 15,19 8,5 17,5 25,3 6,-2 11,-5 16,-11l-8 -4c-3,3 -7,5 -11,6 -6,2 -12,2 -18,-2 -5,-3 -9,-8 -11,-13 0,-2 0,-4 -1,-6l10 -3 -9 -5 -7 -4zm43 13l9 5 8 5 0 0 0 0 10 -17 -8 2c-1,-2 -1,-4 -1,-6 -3,-8 -8,-15 -16,-19 -8,-4 -16,-5 -24,-3 -6,2 -12,6 -16,11l8 4c3,-3 6,-5 10,-6 6,-2 12,-1 18,2 5,3 9,8 11,14 0,2 1,4 1,6l-10 2z"/>
 </g>
</svg>
